<?xml version="1.0" encoding="UTF-8" standalone="no"?>

<svg
        width="512"
        height="512"
        viewBox="0 0 512 512"
        version="1.1"
        id="svg1"
        xml:space="preserve"
        xmlns:xlink="http://www.w3.org/1999/xlink"
        xmlns="http://www.w3.org/2000/svg"
><defs
     id="defs1"><linearGradient
       id="linearGradient1"><stop
         style="stop-color:#ef6a00;stop-opacity:1;"
         offset="0"
         id="stop1" /><stop
        style="stop-color:#e89e1e;stop-opacity:1;"
        offset="1"
        id="stop2"/></linearGradient><linearGradient
        xlink:href="#linearGradient1"
        id="linearGradient2"
        x1="0"
        y1="512"
        x2="512"
        y2="0"
        gradientUnits="userSpaceOnUse"/></defs>
    <g
            id="layer1"><rect
       style="fill:url(#linearGradient2);stroke:none;stroke-width:5;stroke-dasharray:none;stroke-opacity:1"
       id="rect1"
       width="512"
       height="512"
       x="3.3306691e-14"
       y="3.3306691e-14"
       ry="100" />
        <g
                style="opacity:1;mix-blend-mode:normal;fill:none;fill-opacity:0;stroke:#ffffff;stroke-width:2;stroke-linecap:round;stroke-linejoin:round;stroke-opacity:1"
                id="g2"
                transform="matrix(16.54886,0,0,15.942028,57.41368,64.695664)"><path
         d="M 3,7 V 5 A 2,2 0 0 1 5,3 h 2"
         id="path1"
         style="fill:none;fill-opacity:0;stroke:#ffffff;stroke-opacity:1" />
            <path
                    d="m 17,3 h 2 a 2,2 0 0 1 2,2 v 2"
                    id="path2"
                    style="fill:none;fill-opacity:0;stroke:#ffffff;stroke-opacity:1"/>
            <path
                    d="m 21,17 v 2 a 2,2 0 0 1 -2,2 h -2"
                    id="path3"
                    style="fill:none;fill-opacity:0;stroke:#ffffff;stroke-opacity:1"/>
            <path
                    d="M 7,21 H 5 A 2,2 0 0 1 3,19 v -2"
                    id="path4"
                    style="fill:none;fill-opacity:0;stroke:#ffffff;stroke-opacity:1"/>
            <path
                    d="m 8,14 c 0,0 1.5,2 4,2 2.5,0 4,-2 4,-2"
                    id="path5"
                    style="fill:none;fill-opacity:0;stroke:#ffffff;stroke-opacity:1"/>
            <path
                    d="M 9,9 H 9.01"
                    id="path6"
                    style="fill:none;fill-opacity:0;stroke:#ffffff;stroke-opacity:1"/>
            <path
                    d="m 15,9 h 0.01"
                    id="path7"
                    style="fill:none;fill-opacity:0;stroke:#ffffff;stroke-opacity:1"/></g></g></svg>
