<?xml version="1.0" encoding="UTF-8" standalone="no"?>

<svg
   width="512"
   height="512"
   viewBox="0 0 512 512"
   version="1.1"
   id="svg1"
   xml:space="preserve"
   xmlns:xlink="http://www.w3.org/1999/xlink"
   xmlns="http://www.w3.org/2000/svg"
   xmlns:svg="http://www.w3.org/2000/svg"><defs
     id="defs1"><linearGradient
       id="linearGradient1"><stop
         style="stop-color:#e89e1e;stop-opacity:1;"
         offset="0"
         id="stop1" /><stop
         style="stop-color:#ed751f;stop-opacity:1;"
         offset="1"
         id="stop2" /></linearGradient><linearGradient
       xlink:href="#linearGradient1"
       id="linearGradient2"
       x1="512"
       y1="0"
       x2="0"
       y2="512"
       gradientUnits="userSpaceOnUse"
       gradientTransform="matrix(0.99014176,0,0,0.99014176,2.5237009,2.5237009)" /></defs><g
     id="layer1"><rect
       style="fill:url(#linearGradient2);stroke:#ffffff;stroke-width:5.0474;stroke-dasharray:none;stroke-opacity:1"
       id="rect1"
       width="506.95261"
       height="506.95261"
       x="2.5237007"
       y="2.5237007"
       ry="75" /><g
       style="fill:none;stroke:#ffffff;stroke-width:2.19935;stroke-linecap:round;stroke-linejoin:round;stroke-dasharray:none;stroke-opacity:1"
       id="g2"
       transform="matrix(16.964025,0,0,16.509631,52.4317,49.626334)"><path
         d="M 10,15 H 6 a 4,4 0 0 0 -4,4 v 2"
         id="path1"
         style="stroke:#ffffff;stroke-width:2.19935;stroke-dasharray:none;stroke-opacity:1" /><path
         d="m 22,17.5 c 0,2.499 -1.75,3.749 -3.83,4.474 A 0.5,0.5 0 0 1 17.835,21.969 C 15.75,21.249 14,19.999 14,17.499 V 14 a 0.5,0.5 0 0 1 0.5,-0.499 c 1,0 2.25,-0.6 3.12,-1.36 a 0.6,0.6 0 0 1 0.76,-10e-4 c 0.875,0.765 2.12,1.36 3.12,1.36 A 0.5,0.5 0 0 1 22,14 Z"
         id="path2"
         style="stroke:#ffffff;stroke-width:2.19935;stroke-dasharray:none;stroke-opacity:1" /><circle
         cx="9"
         cy="7"
         r="4"
         id="circle2"
         style="stroke:#ffffff;stroke-width:2.19935;stroke-dasharray:none;stroke-opacity:1" /></g></g></svg>
